#!OML:ASF X:\für Bonn\!DataBase\2005_08_10_Bjorn_Final\c3d\bjorn.ASF
:FULLY-SPECIFIED
:DEGREES
151
root -0.165513 19.4382 2.7211 -193.483 -30.8311 -171.843
lowerback 5.6044 -3.09744 -5.59351
upperback 14.2958 -5.82381 -2.07467
thorax 12.6838 -4.08561 0.326001
lowerneck -3.71815 -6.82071 1.73266
upperneck 9.49661 -11.7986 13.8741
head 4.22185 -5.5397 3.31655
rclavicle -5.80451e-014 9.54166e-014
rhumerus -38.6401 -2.39741 -81.9397
rradius 29.016
rwrist 17.5638
rhand -15.282 15.915
rfingers 7.12502
rthumb 10.8928 -13.7825
lclavicle -5.80451e-014 9.54166e-014
lhumerus 27.5548 -24.4062 62.1967
lradius 79.9907
lwrist -20.4007
lhand -25.5835 -19.9436
lfingers 7.12502
lthumb 0.948017 10.034
rfemur -33.4708 -6.02817 18.6517
rtibia 81.4383
rfoot -12.5088 1.82977
rtoes -37.7157
lfemur 1.46652 3.26813 -12.5116
ltibia 21.569
lfoot 0.52416 -26.2608
ltoes 21.1304
152
root -0.185155 19.4149 2.68447 -193.098 -30.0347 -172.255
lowerback 4.8181 -3.13626 -5.72906
upperback 13.9995 -5.74645 -1.985
thorax 12.8251 -4.02514 0.456586
lowerneck -3.6669 -6.71542 2.02169
upperneck 9.44854 -11.6266 13.564
head 4.15326 -5.4647 3.19224
rclavicle -4.13472e-014 -6.36111e-014
rhumerus -38.4638 -2.37754 -81.7172
rradius 29.6967
rwrist 17.5801
rhand -15.9614 16.5125
rfingers 7.12502
rthumb 10.2374 -13.2183
lclavicle -4.13472e-014 -6.36111e-014
lhumerus 26.3011 -24.928 60.5792
lradius 78.785
lwrist -22.2357
lhand -23.5582 -19.927
lfingers 7.12502
lthumb 2.90404 10.033
rfemur -31.4678 -5.36706 18.7646
rtibia 79.0436
rfoot -12.9944 0.931464
rtoes -37.9153
lfemur 1.34076 3.5413 -12.7544
ltibia 22.0737
lfoot -0.190506 -25.9403
ltoes 20.9156
153
root -0.206138 19.3937 2.65053 -192.7 -29.1901 -172.675
lowerback 4.01351 -3.15709 -5.84288
upperback 13.7277 -5.65018 -1.8802
thorax 13.0077 -3.9576 0.59013
lowerneck -3.72574 -6.60686 2.21042
upperneck 9.37901 -11.4555 13.3428
head 4.10846 -5.3851 3.10564
rclavicle 3.18055e-014 -2.22639e-014
rhumerus -38.1889 -2.37771 -81.4697
rradius 30.3825
rwrist 17.6455
rhand -16.6895 17.1862
rfingers 7.12502
rthumb 9.53491 -12.578
lclavicle 3.18055e-014 -2.22639e-014
lhumerus 25.0964 -25.58 58.9622
lradius 77.5849
lwrist -23.6834
lhand -21.4666 -20.0164
lfingers 7.12502
lthumb 4.92383 9.90636
rfemur -29.4896 -4.64744 18.8566
rtibia 76.597
rfoot -13.4676 0.0826913
rtoes -37.7576
lfemur 1.21281 3.68768 -13.054
ltibia 22.555
lfoot -0.919225 -25.4518
ltoes 20.7934
154
root -0.226903 19.3721 2.61794 -192.277 -28.3117 -173.083
lowerback 3.21297 -3.17958 -5.94709
upperback 13.4317 -5.55265 -1.76443
thorax 13.1608 -3.887 0.735713
lowerneck -3.85469 -6.47811 2.41076
upperneck 9.39023 -11.2794 13.1232
head 4.10031 -5.2964 3.01366
rclavicle -5.96354e-014 5.725e-014
rhumerus -37.9289 -2.27878 -81.2384
rradius 31.1186
rwrist 17.7816
rhand -17.4168 17.9462
rfingers 7.12502
rthumb 8.83311 -11.849
lclavicle -5.96354e-014 5.725e-014
lhumerus 23.8292 -26.4796 57.2694
lradius 76.4635
lwrist -24.6018
lhand -19.5057 -20.0005
lfingers 7.12502
lthumb 6.81703 9.86975
rfemur -27.5832 -3.92645 18.9631
rtibia 74.1384
rfoot -13.9466 -0.730327
rtoes -37.3141
lfemur 1.05418 3.72066 -13.3912
ltibia 23.0129
lfoot -1.79467 -24.8217
ltoes 20.2304
155
root -0.24716 19.3503 2.58816 -191.878 -27.3701 -173.466
lowerback 2.42475 -3.17283 -5.95421
upperback 13.1662 -5.42626 -1.66346
thorax 13.329 -3.79504 0.815884
lowerneck -3.96962 -6.35278 2.60069
upperneck 9.36053 -11.1117 12.9672
head 4.08287 -5.21358 2.94306
rclavicle 3.33958e-014 -1.90833e-014
rhumerus -37.6479 -2.12345 -81.0852
rradius 31.9251
rwrist 17.9713
rhand -18.2986 18.6672
rfingers 7.12502
rthumb 7.98218 -11.162
lclavicle 3.33958e-014 -1.90833e-014
lhumerus 22.6414 -27.7068 55.3933
lradius 75.4412
lwrist -24.924
lhand -17.6817 -19.7475
lfingers 7.12502
lthumb 8.57747 10.0583
rfemur -25.725 -3.17659 19.0796
rtibia 71.6976
rfoot -14.351 -1.48803
rtoes -36.2955
lfemur 0.911062 3.76583 -13.7134
ltibia 23.4529
lfoot -2.66496 -24.1368
ltoes 19.7164
156
root -0.267012 19.3294 2.56124 -191.471 -26.4122 -173.845
lowerback 1.67052 -3.16008 -5.93927
upperback 12.8864 -5.29526 -1.5567
thorax 13.4584 -3.69832 0.898179
lowerneck -4.0302 -6.20994 2.79024
upperneck 9.29066 -10.9133 12.8279
head 4.04383 -5.11994 2.88212
rclavicle -4.01545e-014 3.81667e-014
rhumerus -37.4024 -1.82105 -80.9537
rradius 32.82
rwrist 18.0752
rhand -19.1587 19.3697
rfingers 7.12502
rthumb 7.15194 -10.4895
lclavicle -4.01545e-014 3.81667e-014
lhumerus 21.3893 -29.2093 53.5561
lradius 74.505
lwrist -24.7436
lhand -16.0257 -19.279
lfingers 7.12502
lthumb 10.1754 10.4549
rfemur -23.9642 -2.49028 19.1662
rtibia 69.3173
rfoot -14.9128 -2.11595
rtoes -35.1971
lfemur 0.732272 3.77222 -14.0636
ltibia 23.89
lfoot -3.51819 -23.3665
ltoes 19.2001
157
root -0.28588 19.3093 2.53436 -191.072 -25.4549 -174.188
lowerback 0.92309 -3.15778 -5.90568
upperback 12.6071 -5.18478 -1.41687
thorax 13.5893 -3.61248 1.00681
lowerneck -4.10518 -6.07225 2.89135
upperneck 9.25422 -10.7185 12.6953
head 4.02255 -5.02632 2.83559
rclavicle 1.98785e-014 1.90833e-014
rhumerus -37.0967 -1.5266 -80.7854
rradius 33.7072
rwrist 18.3225
rhand -20.0096 20.0361
rfingers 7.12502
rthumb 6.3305 -9.84926
lclavicle 1.98785e-014 1.90833e-014
lhumerus 20.019 -30.8899 51.8747
lradius 73.6298
lwrist -24.2108
lhand -14.3439 -18.5847
lfingers 7.12502
lthumb 11.7975 11.063
rfemur -22.29 -1.86505 19.2592
rtibia 67.0133
rfoot -15.6227 -2.6812
rtoes -34.1878
lfemur 0.537182 3.77387 -14.3933
ltibia 24.3149
lfoot -4.38769 -22.6028
ltoes 18.5169
158
root -0.304332 19.2892 2.50605 -190.687 -24.4362 -174.509
lowerback 0.153524 -3.13569 -5.8303
upperback 12.3591 -5.05661 -1.27714
thorax 13.7672 -3.51765 1.09203
lowerneck -4.25904 -5.92618 2.97653
upperneck 9.26228 -10.5259 12.58
head 4.03059 -4.92787 2.79282
rclavicle -2.70347e-014 1.74931e-014
rhumerus -36.6939 -1.19469 -80.6516
rradius 34.5858
rwrist 18.6599
rhand -20.9083 20.6409
rfingers 7.12502
rthumb 5.46293 -9.26872
lclavicle -2.70347e-014 1.74931e-014
lhumerus 18.6663 -32.6539 50.3723
lradius 72.6105
lwrist -23.5236
lhand -12.6219 -17.7968
lfingers 7.12502
lthumb 13.4576 11.7485
rfemur -20.6946 -1.25906 19.3527
rtibia 64.8107
rfoot -16.41 -3.14998
rtoes -32.7687
lfemur 0.343308 3.81883 -14.6965
ltibia 24.7392
lfoot -5.24032 -21.8128
ltoes 17.915
159
root -0.321922 19.2683 2.47713 -190.299 -23.4066 -174.809
lowerback -0.611784 -3.10386 -5.7172
upperback 12.101 -4.9188 -1.13709
thorax 13.9266 -3.41349 1.1626
lowerneck -4.36611 -5.78469 3.0585
upperneck 9.27375 -10.334 12.4502
head 4.03143 -4.83187 2.74799
rclavicle 3.37934e-014 -3.97569e-014
rhumerus -36.2176 -0.852496 -80.5807
rradius 35.4155
rwrist 18.8749
rhand -21.7836 21.1063
rfingers 7.12502
rthumb 4.6177 -8.82339
lclavicle 3.37934e-014 -3.97569e-014
lhumerus 17.288 -34.4819 49.1983
lradius 71.331
lwrist -22.9732
lhand -10.692 -16.9987
lfingers 7.12502
lthumb 15.3172 12.414
rfemur -19.2294 -0.748396 19.4276
rtibia 62.7426
rfoot -17.1846 -3.61105
rtoes -31.6054
lfemur 0.131762 3.8578 -14.986
ltibia 25.1666
lfoot -5.97169 -21.0543
ltoes 17.6817
160
root -0.339084 19.2469 2.44873 -189.961 -22.3256 -175.073
lowerback -1.33861 -3.06337 -5.56705
upperback 11.8664 -4.78674 -0.971946
thorax 14.0908 -3.3139 1.24328
lowerneck -4.49137 -5.63985 3.10969
upperneck 9.31377 -10.127 12.2687
head 4.04204 -4.72665 2.69242
rclavicle 4.09496e-014 -9.54166e-015
rhumerus -35.6686 -0.519095 -80.489
rradius 36.2466
rwrist 19.124
rhand -22.6258 21.5116
rfingers 7.12502
rthumb 3.80449 -8.43416
lclavicle 4.09496e-014 -9.54166e-015
lhumerus 15.8759 -36.2541 48.3671
lradius 69.7932
lwrist -22.7678
lhand -8.59458 -16.2057
lfingers 7.12502
lthumb 17.3367 13.0411
rfemur -17.8535 -0.348238 19.4965
rtibia 60.8161
rfoot -17.8931 -4.01475
rtoes -30.7862
lfemur -0.0612996 3.99135 -15.2295
ltibia 25.6175
lfoot -6.76117 -20.3135
ltoes 17.1681
161
root -0.355425 19.2255 2.42169 -189.601 -21.197 -175.357
lowerback -2.04173 -3.00041 -5.40427
upperback 11.6196 -4.62889 -0.809961
thorax 14.2224 -3.2003 1.32319
lowerneck -4.63437 -5.50105 3.1275
upperneck 9.42832 -9.93383 12.0674
head 4.07987 -4.62483 2.63372
rclavicle 1.15295e-014 -7.95139e-015
rhumerus -35.0979 -0.172501 -80.4172
rradius 37.072
rwrist 19.2512
rhand -23.4554 21.8941
rfingers 7.12502
rthumb 3.00327 -8.06449
lclavicle 1.15295e-014 -7.95139e-015
lhumerus 14.4387 -38.0903 47.7618
lradius 68.1692
lwrist -22.9033
lhand -6.33745 -15.2851
lfingers 7.12502
lthumb 19.5079 13.7562
rfemur -16.6165 -0.0186144 19.5067
rtibia 59.027
rfoot -18.4843 -4.38572
rtoes -30.4103
lfemur -0.296103 4.21065 -15.4868
ltibia 26.0935
lfoot -7.53187 -19.5857
ltoes 16.7246
